<?xml version="1.0" encoding="UTF-8"?>
<!-- SVG sprite: icons.svg - used inline via <use xlink:href="/assets/icons.svg#icon-name"> -->
<svg xmlns="http://www.w3.org/2000/svg" style="display:none">
  <symbol id="icon-instagram" viewBox="0 0 24 24">
    <path fill="currentColor" d="M7.5 2h9A5.5 5.5 0 0 1 22 7.5v9A5.5 5.5 0 0 1 16.5 22h-9A5.5 5.5 0 0 1 2 16.5v-9A5.5 5.5 0 0 1 7.5 2Zm9 2h-9A3.5 3.5 0 0 0 4 7.5v9A3.5 3.5 0 0 0 7.5 20h9a3.5 3.5 0 0 0 3.5-3.5v-9A3.5 3.5 0 0 0 16.5 4ZM12 7a5 5 0 1 1 0 10a5 5 0 0 1 0-10Zm0 2a3 3 0 1 0 0 6a3 3 0 0 0 0-6Zm6.2-2.2a1 1 0 1 1-2 0a1 1 0 0 1 2 0Z" />
  </symbol>
  <symbol id="icon-facebook" viewBox="0 0 24 24">
    <path fill="currentColor" d="M13.5 22v-8h2.7l.4-3H13.5V9.2c0-.8.2-1.3 1.4-1.3H16.7V5.2c-.6-.1-1.8-.2-3.1-.2c-2.8 0-4.7 1.7-4.7 4.8V11H6v3h3v8h4.5Z" />
  </symbol>
  <symbol id="icon-whatsapp" viewBox="0 0 24 24">
    <path fill="currentColor" d="M20.5 3.5A10.5 10.5 0 1 0 7.6 20.9L4 22l1.2-3.6A10.5 10.5 0 0 0 20.5 3.5Zm-8.6 14.1c-1.5 0-2.9-.4-4.1-1.1l-.3-.2-2.4.6.6-2.3-.2-.3A7.4 7.4 0 1 1 12 19.6Zm4.1-5.3c-.2-.1-1.2-.6-1.4-.7-.2-.1-.4-.1-.6.1-.2.2-.7.7-.8.8-.1.1-.2.2-.4.1-.5-.2-1-1-1.1-1.1-.1-.2 0-.4.1-.5.1-.1.2-.3.3-.4.1-.1.1-.4 0-.7-.1-.3-.6-1.7-.9-2.3-.2-.6-.5-.5-.7-.5-.2 0-.4 0-.6 0-.2 0-.5.1-.8.4-.3.3-1 1-1 2.5s1 2.9 1.2 3.1c.2.2 2 3.2 4.8 4.5 1.5.7 2.2.8 2.9.7.7-.1 2.3-.9 2.6-1.8.3-.9.3-1.7.2-1.8-.1-.1-1.1-.2-1.4-.3z" />
  </symbol>
  <symbol id="icon-phone" viewBox="0 0 24 24">
    <path fill="currentColor" d="M6.6 10.8a15.1 15.1 0 0 0 6.6 6.6l1.8-1.8a1 1 0 0 1 1.1-.2c1.2.5 2.4.8 3.6.8a1 1 0 0 1 1 1v3.1a1 1 0 0 1-1 1C9.4 21.9 2.1 14.6 2.1 4.9A1 1 0 0 1 3.1 4h3.1a1 1 0 0 1 1 1c0 1.2.3 2.4.8 3.6.2.4.1.9-.2 1.1L6.6 10.8z" />
  </symbol>
  <symbol id="icon-location" viewBox="0 0 24 24">
    <path fill="currentColor" d="M12 2a7 7 0 0 0-7 7c0 5.2 7 13 7 13s7-7.8 7-13a7 7 0 0 0-7-7zm0 9.5A2.5 2.5 0 1 1 12 6.5a2.5 2.5 0 0 1 0 5z" />
  </symbol>
</svg>
